<svg enable-background="new 0 0 200 100" height="223.606798" viewBox="0 0 200 100" width="447.213595" xmlns="http://www.w3.org/2000/svg"><path d="m10.95 33.69c.98-11.55-4.74-15.06-4.74-15.06s1.34 4.9.36 17.47c-.67 8.57 2.38 15.22 4.16 19.33.25.58 1.11.13.95-.48-1.6-6.07-1.54-11.71-.73-21.26" fill="#ff4713"/><path d="m38.38 88.33c7.51-6.84 18.17-27.23 18.37-42.68-1.73.51-5.16 2.36-6.44 8.08-.73 3.27-2.78 11.02-10.36 10.36-10.49-.93-8.97-20.78 7.47-18.98 7.77.85 9.03-4.74 9.03-5.49-1.7.78-4.27.46-6.68.16-14.81-1.78-21.93 6.71-21.93 16.38 0 5.81 3.78 10.69 8.04 13.41 2.26 1.45.63 2.86-1.05 1.64-4.48-3.23-9.71-7.51-9.71-16.61 0-15.21 15.51-21.81 19.15-24.52 5.41-4.03 8.01-7.36 6.69-13.29-2.13 3.94-7.39 7.38-11.31 9.46-10.6 5.63-18.9 13.83-18.9 25.87 0 9.47 4.16 14.68 9.16 18.71 1.14.91-.06 2.19-1.52 1.02-7.95-6.41-10.58-13.51-10.58-22.63.01-17.22 21.74-32.81 11.97-45.22.13 12.67-16.25 23.74-16.25 44.71 0 9.42 3.78 18.76 14.31 26.15 6.21 4.36 7.09 9.34 6.18 13.85-.4 2.43 2.55 1.27 4.36-.38" fill="#ff4713"/><g fill="#243746"><path d="m94.45 39.62c-1.34 0-2.52.99-2.7 2.33-.24 1.78 1.37 3.32 3.12 3.03 1.57-.25 2.61-1.87 2.18-3.39-.31-1.18-1.41-1.97-2.6-1.97"/><path d="m183.7 54.48c0-5.3-2.46-7.3-7.82-7.3-3.99 0-7.73 1.47-7.73 2.95 0 .51.48 1.83 1.23 2.71 1.89-1.08 3.51-1.83 5.67-1.83 3.41 0 3.47 1.57 3.47 3.51-5.59 0-11.56 1.17-11.56 6.74 0 3.73 2.22 5.99 6.11 5.99 2.7 0 4.19-1 5.85-2.08.71 2.28 3.92 1.95 5.6 1.21-.63-1.02-.81-2.11-.81-4.55v-7.35zm-5.19 7.46c-1.09 1.03-2.25 1.6-3.67 1.6-3.37 0-3.51-3.75-1.51-5.08 1.25-.85 3.56-1.1 5.18-1.1z"/><path d="m131.59 54.48c0-5.3-2.46-7.3-7.82-7.3-4 0-7.74 1.47-7.74 2.95 0 .51.48 1.83 1.23 2.71 1.89-1.08 3.51-1.83 5.66-1.83 3.42 0 3.47 1.57 3.47 3.51-5.59 0-11.56 1.17-11.56 6.74 0 3.73 2.22 5.99 6.11 5.99 2.7 0 4.19-1 5.85-2.08.71 2.28 3.92 1.95 5.6 1.21-.63-1.02-.81-2.11-.81-4.55v-7.35zm-5.19 7.46c-1.09 1.03-2.25 1.6-3.67 1.6-3.37 0-3.51-3.75-1.51-5.08 1.25-.85 3.56-1.1 5.18-1.1z"/><path d="m77.6 39.62h-7.18v27.16c.29.09 1.75.19 2.09.16 2.23-.07 3.33-.97 3.33-2.98v-6.88h2.03c6.19 0 10.77-2.74 10.77-9.33-.01-6.26-5.28-8.13-11.04-8.13m-1.76 13.59v-9.58c3.81-.35 7.21.34 7.21 4.39 0 5.1-3.53 5.19-7.21 5.19"/><path d="m97.16 63.95c0 2.02-1.1 2.92-3.32 2.98-.35.03-1.81-.07-2.1-.16v-16.2c0-2.02 1.1-2.92 3.33-2.98.34-.03 1.8.07 2.1.16v16.2z"/><path d="m158.51 56.54c0-2.44-.05-3.11-.25-3.64-.84-2.31-5.72-1.61-5.72.76v10.29c0 2.02-1.1 2.92-3.33 2.98-.34.03-1.8-.06-2.1-.16v-10.23c0-2.44-.05-3.11-.25-3.64-.84-2.31-5.72-1.61-5.72.76v10.29c0 2.02-1.1 2.92-3.33 2.98-.34.03-1.8-.06-2.09-.16v-19.02c2.22-.32 4.68-.29 5.14 1.89 2.16-3.08 9.54-3.76 10.95.83 1.31-2.5 4.2-3.49 6.94-3.25 4.67.4 5.14 4.21 5.16 8.88v7.85c0 2.02-1.1 2.92-3.33 2.98-.34.03-1.8-.06-2.1-.16v-10.23z"/><path d="m101.34 66.78c.29.09 1.75.19 2.09.16 2.23-.06 3.33-.96 3.33-2.98v-9.63c0-2.09 3.14-3.57 5.86-1.27.66-1.12 1.31-2.86 1.31-3.89 0-2.21-4.68-3.19-7.42.46-.5-2.09-3.04-2.22-5.18-1.87v19.02z"/><path d="m193.2 39.77c-.25-.09-1.4-.16-1.83-.16-2.39 0-3.59.89-3.59 2.99v24.17c.29.09 1.75.19 2.1.16 2.22-.06 3.32-.96 3.32-2.98z"/><path d="m82.35 88.33c.2.34.27.54.27.78 0 .59-.51 1.06-1.13 1.06-.44 0-.71-.22-1.01-.71l-2.98-5.17c-.37.02-.79.05-1.21.05h-3.57v4.68c0 .62-.52 1.15-1.16 1.15s-1.13-.54-1.13-1.15v-14.09c0-.62.49-1.16 1.13-1.16h4.68c2.17 0 3.7.44 4.88 1.45 1.04.91 1.55 2.27 1.55 3.82 0 1.6-.54 2.96-1.58 3.87-.42.37-.88.66-1.45.89zm-2.96-6.73c.62-.55.96-1.35.96-2.54 0-1.18-.35-1.99-.96-2.54-.73-.64-1.97-.86-3.4-.86h-3.28v6.8h3.28c1.48.01 2.63-.22 3.4-.86"/><path d="m111.83 89.09v-15.45c0-.59.49-1.08 1.08-1.08s1.08.5 1.08 1.08v15.45c0 .6-.49 1.08-1.08 1.08-.59.01-1.08-.48-1.08-1.08"/><path d="m128.44 94.84c0-.2.05-.37.17-.67l1.77-3.99-4.73-10.49c-.13-.3-.17-.47-.17-.67 0-.62.47-1.01 1.04-1.01.47 0 .79.27.99.69l2.66 5.99c.57 1.26 1.02 2.42 1.26 3.22h.02c.27-.83.66-1.92 1.21-3.22l2.52-5.96c.2-.44.47-.71.96-.71.57 0 1.04.39 1.04.99 0 .19-.05.36-.18.66l-6.56 15.45c-.2.44-.47.72-.96.72-.57-.02-1.04-.41-1.04-1"/><path d="m86.3 88.7c-3.39-3.4-1.86-10.82 4.02-10.82 3.28 0 5.59 2.54 5.59 5.7 0 .76-.32 1.08-1.01 1.08h-8.11c.16 1.8 1.23 3.67 3.82 3.67 1.04 0 1.97-.27 3.2-.93.42-.22.64-.32.92-.32.49 0 .83.32.83.82 0 .39-.14.69-.83 1.18-.96.69-2.57 1.23-4.07 1.23-2.02-.01-3.34-.6-4.36-1.61m7.47-5.72c-.15-1.87-1.43-3.16-3.43-3.16-1.97 0-3.35 1.16-3.57 3.16z"/><path d="m97.47 84.14c0-3.99 2.74-6.26 5.44-6.26 1.56 0 2.65.63 3.79 1.24v-.02c0-.59.5-1.09 1.08-1.09.59 0 1.08.5 1.08 1.09v10c0 .59-.49 1.08-1.08 1.08s-1.08-.5-1.08-1.08v-.08c-1.24.67-2.29 1.28-3.89 1.28-3.18 0-5.34-2.51-5.34-6.16m8.96 3.33c.22-.13.27-.22.27-.49v-5.77c0-.3-.05-.4-.29-.52-.96-.49-2.09-.81-3.11-.81-2.26 0-3.6 1.36-3.6 4.24 0 2.98 1.34 4.19 3.48 4.19 1.09 0 2.42-.38 3.25-.84"/><path d="m118.66 89.44c-.69-.67-.99-1.53-.99-2.94v-6.72h-1.5c-.47 0-.86-.37-.86-.84 0-.48.39-.86.86-.86h1.5v-2.71c0-.59.5-1.08 1.08-1.08.59 0 1.09.49 1.09 1.08v2.71h3.52c.47 0 .84.39.84.86 0 .46-.37.84-.84.84h-3.52v6.7c0 .71.1 1.13.36 1.46.89 1.06 3.18-.02 3.85-.02.47 0 .84.32.84.81 0 .42-.24.74-.84 1-1.53.72-4.16.89-5.39-.29"/></g></svg>